<svg xmlns="http://www.w3.org/2000/svg" viewBox="0 0 400 400">
  <defs>
    <linearGradient id="a" x1="0%" y1="0%" x2="100%" y2="100%">
      <stop offset="0%" style="stop-color:#0052FF"/>
      <stop offset="100%" style="stop-color:#0052FF"/>
    </linearGradient>
  </defs>
  <circle cx="200" cy="200" r="200" fill="url(#a)"/>
  <path fill="#fff" d="M200 70c71.8 0 130 58.2 130 130s-58.2 130-130 130S70 271.8 70 200 128.2 70 200 70zm0 40c-49.7 0-90 40.3-90 90s40.3 90 90 90 90-40.3 90-90-40.3-90-90-90zm-30 60h60c8.3 0 15 6.7 15 15v30c0 8.3-6.7 15-15 15h-60c-8.3 0-15-6.7-15-15v-30c0-8.3 6.7-15 15-15z"/>
</svg>

