<svg xmlns="http://www.w3.org/2000/svg" viewBox="0 0 400 400">
  <defs>
    <linearGradient id="a" x1="0%" y1="0%" x2="100%" y2="100%">
      <stop offset="0%" style="stop-color:#5C8CF6"/>
      <stop offset="100%" style="stop-color:#3B82F6"/>
    </linearGradient>
  </defs>
  <circle cx="200" cy="200" r="200" fill="url(#a)"/>
  <path fill="#fff" d="M122.5 148.5c42.8-42 112.2-42 155 0l5.2 5.1c2.1 2.1 2.1 5.5 0 7.6l-17.7 17.4c-1.1 1-2.8 1-3.9 0l-7.1-7c-29.9-29.3-78.3-29.3-108.2 0l-7.6 7.5c-1.1 1-2.8 1-3.9 0l-17.7-17.4c-2.1-2.1-2.1-5.5 0-7.6l5.9-5.6zm191.4 35.7 15.8 15.5c2.1 2.1 2.1 5.5 0 7.6l-71.2 69.8c-2.1 2.1-5.6 2.1-7.8 0l-50.5-49.5c-.5-.5-1.4-.5-1.9 0l-50.5 49.5c-2.1 2.1-5.6 2.1-7.8 0l-71.2-69.8c-2.1-2.1-2.1-5.5 0-7.6l15.8-15.5c2.1-2.1 5.6-2.1 7.8 0l50.5 49.5c.5.5 1.4.5 1.9 0l50.5-49.5c2.1-2.1 5.6-2.1 7.8 0l50.5 49.5c.5.5 1.4.5 1.9 0l50.5-49.5c2.2-2.1 5.7-2.1 7.9 0z"/>
</svg>

