<svg width="486" height="187" viewBox="0 0 486 187" fill="none" xmlns="http://www.w3.org/2000/svg">
<path d="M281.698 36.0821V46.3015H258.234V93.3105H248.015V46.3015H224.552V36.0821H281.698Z" fill="black"/>
<path d="M349.559 64.6151C349.559 80.393 336.724 93.2301 320.944 93.2301C305.165 93.2301 292.329 80.3948 292.329 64.6151C292.329 48.8355 305.165 36.0001 320.944 36.0001C336.724 36.0001 349.559 48.8355 349.559 64.6151ZM339.34 64.6151C339.34 54.4778 331.083 46.2195 320.944 46.2195C310.805 46.2195 302.549 54.4761 302.549 64.6151C302.549 74.7542 310.805 83.0107 320.944 83.0107C331.083 83.0107 339.34 74.7542 339.34 64.6151Z" fill="black"/>
<path d="M417.259 36.0821V46.3015H393.795V93.3105H383.576V46.3015H360.112V36.0821H417.259Z" fill="black"/>
<path d="M485.12 64.615C485.12 80.393 472.285 93.2301 456.505 93.2301C440.726 93.2301 427.89 80.3947 427.89 64.615C427.89 48.8354 440.726 36 456.505 36C472.285 36 485.12 48.8354 485.12 64.615ZM474.901 64.615C474.901 54.4777 466.644 46.2194 456.505 46.2194C446.366 46.2194 438.11 54.476 438.11 64.615C438.11 74.7541 446.366 83.0107 456.505 83.0107C466.644 83.0107 474.901 74.7541 474.901 64.615Z" fill="black"/>
<path d="M230.233 148.463V118.173H249.017V122.107H234.803V131.336H247.671V135.255H234.803V148.463H230.233Z" fill="black"/>
<path d="M235.787 149.45H229.247V117.189H250V123.093H235.787V130.353H248.654V136.242H235.787V149.45ZM231.218 147.478H233.819V134.27H246.686V132.321H233.819V121.122H248.032V119.157H231.218V147.477V147.478Z" fill="black"/>
<path d="M261.792 148.463V118.303H267.178V148.463H261.792Z" fill="black"/>
<path d="M268.161 149.45H260.806V117.319H268.161V149.45ZM262.777 147.478H266.193V119.287H262.777V147.478Z" fill="black"/>
<path d="M310.263 118.347V148.508L304.877 144.372L285.488 129.421V148.509H280.103V118.434L285.488 122.57L304.877 137.521V118.304L310.263 118.347Z" fill="black"/>
<path d="M311.248 150.505L286.473 131.422V149.491H279.118V116.432L303.893 135.515V117.309L311.248 117.367V150.503V150.505ZM281.087 147.523H284.504V127.417L309.278 146.509V119.323L305.862 119.296V139.523L281.087 120.431V147.523Z" fill="black"/>
<path d="M352.225 148.463H346.193L343.435 143.077L336.842 130.151L330.251 143.077L327.493 148.463H321.461L324.219 143.077L336.842 118.302L349.467 143.077L352.225 148.463Z" fill="black"/>
<path d="M353.836 149.45H345.591L336.844 132.321L328.096 149.45H319.852L323.343 142.631L336.844 116.136L353.837 149.451L353.836 149.45ZM346.795 147.478H350.614L348.59 143.527L336.842 120.472L323.071 147.478H326.891L336.842 127.983L346.795 147.478Z" fill="black"/>
<path d="M393.585 118.347V148.508L388.199 144.372L368.81 129.421V148.509H363.424V118.434L368.81 122.57L388.199 137.521V118.304L393.585 118.347Z" fill="black"/>
<path d="M394.57 150.505L369.795 131.422V149.491H362.439V116.432L387.214 135.515V117.309L394.57 117.367V150.503V150.505ZM364.409 147.523H367.825V127.417L392.6 146.509V119.323L389.184 119.296V139.523L364.409 120.431V147.523Z" fill="black"/>
<path d="M411.462 133.385C411.462 138.728 415.814 143.079 421.157 143.079H436.237V148.465H421.157C412.84 148.465 406.076 141.701 406.076 133.385C406.076 125.068 412.84 118.304 421.157 118.304H436.237V123.69H421.157C415.814 123.69 411.462 128.041 411.462 133.385Z" fill="black"/>
<path d="M437.222 149.45H421.157C412.298 149.45 405.092 142.243 405.092 133.385C405.092 124.526 412.298 117.319 421.157 117.319H437.222V124.675H421.157C416.354 124.675 412.447 128.582 412.447 133.385C412.447 138.187 416.354 142.094 421.157 142.094H437.222V149.45ZM421.157 119.289C413.384 119.289 407.061 125.612 407.061 133.385C407.061 141.157 413.384 147.48 421.157 147.48H435.252V144.064H421.157C415.268 144.064 410.477 139.273 410.477 133.385C410.477 127.496 415.268 122.705 421.157 122.705H435.252V119.289H421.157Z" fill="black"/>
<path d="M454.545 126.446V129.247H473.934V134.633H454.545V140.319C454.545 141.827 455.795 143.077 457.303 143.077H479.322V148.463H457.303C452.824 148.463 449.204 144.801 449.204 140.319V126.446C449.204 121.965 452.824 118.302 457.303 118.302H479.322V123.688H457.303C455.795 123.688 454.545 124.938 454.545 126.446Z" fill="black"/>
<path d="M480.305 149.45H457.302C452.292 149.45 448.218 145.355 448.218 140.321V126.448C448.218 121.414 452.292 117.319 457.302 117.319H480.305V124.675H457.302C456.341 124.675 455.529 125.487 455.529 126.448V128.264H474.918V135.619H455.529V140.321C455.529 141.282 456.341 142.094 457.302 142.094H480.305V149.45ZM457.302 119.289C453.38 119.289 450.187 122.5 450.187 126.448V140.321C450.187 144.269 453.38 147.48 457.302 147.48H478.336V144.064H457.302C455.238 144.064 453.559 142.385 453.559 140.321V133.65H472.948V130.233H453.559V126.448C453.559 124.384 455.238 122.705 457.302 122.705H478.336V119.289H457.302Z" fill="black"/>
<path d="M105.744 10.8332H78.9068C75.9147 10.8332 73.4902 8.40875 73.4902 5.41661C73.4902 2.42448 75.9147 0 78.9068 0H105.744C108.736 0 111.16 2.42448 111.16 5.41661C111.16 8.40875 108.736 10.8332 105.744 10.8332Z" fill="black"/>
<path d="M153.813 35.8987H30.8277C27.8356 35.8987 25.4111 33.4742 25.4111 30.4821C25.4111 27.49 27.8356 25.0655 30.8277 25.0655H153.813C156.805 25.0655 159.23 27.49 159.23 30.4821C159.23 33.4742 156.805 35.8987 153.813 35.8987Z" fill="black"/>
<path d="M171.68 60.966H134.509C131.517 60.966 129.093 58.5415 129.093 55.5494C129.093 52.5572 131.517 50.1328 134.509 50.1328H171.68C174.672 50.1328 177.097 52.5572 177.097 55.5494C177.097 58.5415 174.672 60.966 171.68 60.966Z" fill="black"/>
<path d="M50.1312 60.966H12.9603C9.96818 60.966 7.5437 58.5415 7.5437 55.5494C7.5437 52.5572 9.96818 50.1328 12.9603 50.1328H50.1312C53.1233 50.1328 55.5478 52.5572 55.5478 55.5494C55.5478 58.5415 53.1233 60.966 50.1312 60.966Z" fill="black"/>
<path d="M179.224 86.0212H107.956C104.964 86.0212 102.54 83.5967 102.54 80.6046C102.54 77.6125 104.964 75.188 107.956 75.188H179.224C182.216 75.188 184.64 77.6125 184.64 80.6046C184.64 83.5967 182.216 86.0212 179.224 86.0212Z" fill="black"/>
<path d="M76.6858 86.0212H5.41661C2.42448 86.0212 0 83.5967 0 80.6046C0 77.6125 2.42448 75.188 5.41661 75.188H76.6858C79.6779 75.188 82.1024 77.6125 82.1024 80.6046C82.1024 83.5967 79.6779 86.0212 76.6858 86.0212Z" fill="black"/>
<path d="M179.224 111.087H107.956C104.964 111.087 102.54 108.662 102.54 105.67C102.54 102.678 104.964 100.254 107.956 100.254H179.224C182.216 100.254 184.64 102.678 184.64 105.67C184.64 108.662 182.216 111.087 179.224 111.087Z" fill="black"/>
<path d="M76.6858 111.087H5.41661C2.42448 111.087 0 108.662 0 105.67C0 102.678 2.42448 100.254 5.41661 100.254H76.6858C79.6779 100.254 82.1024 102.678 82.1024 105.67C82.1024 108.662 79.6779 111.087 76.6858 111.087Z" fill="black"/>
<path d="M171.68 136.154H107.956C104.964 136.154 102.54 133.729 102.54 130.737C102.54 127.745 104.964 125.321 107.956 125.321H171.68C174.672 125.321 177.097 127.745 177.097 130.737C177.097 133.729 174.672 136.154 171.68 136.154Z" fill="black"/>
<path d="M76.6859 136.154H12.962C9.96989 136.154 7.54541 133.729 7.54541 130.737C7.54541 127.745 9.96989 125.321 12.962 125.321H76.6859C79.678 125.321 82.1025 127.745 82.1025 130.737C82.1025 133.729 79.678 136.154 76.6859 136.154Z" fill="black"/>
<path d="M153.813 161.209H30.8277C27.8356 161.209 25.4111 158.785 25.4111 155.793C25.4111 152.801 27.8356 150.376 30.8277 150.376H153.813C156.805 150.376 159.23 152.801 159.23 155.793C159.23 158.785 156.805 161.209 153.813 161.209Z" fill="black"/>
<path d="M105.744 186.275H78.9068C75.9147 186.275 73.4902 183.85 73.4902 180.858C73.4902 177.866 75.9147 175.442 78.9068 175.442H105.744C108.736 175.442 111.16 177.866 111.16 180.858C111.16 183.85 108.736 186.275 105.744 186.275Z" fill="black"/>
</svg>
