<svg width="261" height="341" viewBox="0 0 261 341" fill="none" xmlns="http://www.w3.org/2000/svg">
<path d="M57.1463 226.082V236.301H33.6829V283.31H23.4634V236.301H0V226.082H57.1463Z" fill="black"/>
<path d="M125.008 254.615C125.008 270.393 112.173 283.23 96.3929 283.23C80.6132 283.23 67.7778 270.395 67.7778 254.615C67.7778 238.835 80.6132 226 96.3929 226C112.173 226 125.008 238.835 125.008 254.615ZM114.789 254.615C114.789 244.478 106.532 236.219 96.3929 236.219C86.2538 236.219 77.9973 244.476 77.9973 254.615C77.9973 264.754 86.2538 273.011 96.3929 273.011C106.532 273.011 114.789 264.754 114.789 254.615Z" fill="black"/>
<path d="M192.707 226.082V236.302H169.244V283.311H159.024V236.302H135.561V226.082H192.707Z" fill="black"/>
<path d="M260.569 254.615C260.569 270.393 247.733 283.23 231.954 283.23C216.174 283.23 203.339 270.395 203.339 254.615C203.339 238.835 216.174 226 231.954 226C247.733 226 260.569 238.835 260.569 254.615ZM250.349 254.615C250.349 244.478 242.093 236.219 231.954 236.219C221.815 236.219 213.558 244.476 213.558 254.615C213.558 264.754 221.815 273.011 231.954 273.011C242.093 273.011 250.349 264.754 250.349 254.615Z" fill="black"/>
<path d="M5.68164 338.463V308.173H24.4654V312.107H10.2519V321.336H23.1198V325.255H10.2519V338.463H5.68164Z" fill="black"/>
<path d="M11.235 339.45H4.69507V307.189H25.4485V313.093H11.235V320.353H24.1029V326.242H11.235V339.45ZM6.66646 337.478H9.26707V324.27H22.1349V322.321H9.26707V311.122H23.4805V309.157H6.66646V337.477V337.478Z" fill="black"/>
<path d="M37.241 338.463V308.303H42.6268V338.463H37.241Z" fill="black"/>
<path d="M43.6099 339.45H36.2544V307.319H43.6099V339.45ZM38.2258 337.478H41.6419V309.287H38.2258V337.478Z" fill="black"/>
<path d="M85.7117 308.347V338.508L80.3259 334.372L60.9369 319.421V338.509H55.551V308.434L60.9369 312.57L80.3259 327.521V308.304L85.7117 308.347Z" fill="black"/>
<path d="M86.6965 340.505L61.9217 321.422V339.491H54.5662V306.432L79.341 325.515V307.309L86.6965 307.367V340.503V340.505ZM56.5358 337.523H59.952V317.417L84.7269 336.509V309.323L81.3107 309.296V329.523L56.5358 310.431V337.523Z" fill="black"/>
<path d="M127.673 338.463H121.641L118.883 333.077L112.29 320.151L105.699 333.077L102.941 338.463H96.9092L99.6671 333.077L112.29 308.302L124.916 333.077L127.673 338.463Z" fill="black"/>
<path d="M129.284 339.45H121.039L112.292 322.321L103.545 339.45H95.3003L98.7917 332.631L112.292 306.136L129.286 339.451L129.284 339.45ZM122.243 337.478H126.063L124.038 333.527L112.29 310.472L98.5198 337.478H102.34L112.29 317.983L122.243 337.478Z" fill="black"/>
<path d="M169.033 308.347V338.508L163.647 334.372L144.258 319.421V338.509H138.873V308.434L144.258 312.57L163.647 327.521V308.304L169.033 308.347Z" fill="black"/>
<path d="M170.018 340.505L145.243 321.422V339.491H137.888V306.432L162.663 325.515V307.309L170.018 307.367V340.503V340.505ZM139.857 337.523H143.274V317.417L168.048 336.509V309.323L164.632 309.296V329.523L139.857 310.431V337.523Z" fill="black"/>
<path d="M186.911 323.385C186.911 328.728 191.262 333.079 196.605 333.079H211.686V338.465H196.605C188.289 338.465 181.525 331.701 181.525 323.385C181.525 315.068 188.289 308.304 196.605 308.304H211.686V313.69H196.605C191.262 313.69 186.911 318.042 186.911 323.385Z" fill="black"/>
<path d="M212.67 339.45H196.605C187.747 339.45 180.54 332.243 180.54 323.385C180.54 314.526 187.747 307.319 196.605 307.319H212.67V314.675H196.605C191.802 314.675 187.896 318.582 187.896 323.385C187.896 328.187 191.802 332.094 196.605 332.094H212.67V339.45ZM196.605 309.289C188.833 309.289 182.51 315.612 182.51 323.385C182.51 331.157 188.833 337.48 196.605 337.48H210.701V334.064H196.605C190.717 334.064 185.926 329.273 185.926 323.385C185.926 317.496 190.717 312.705 196.605 312.705H210.701V309.289H196.605Z" fill="black"/>
<path d="M229.994 316.446V319.247H249.383V324.633H229.994V330.32C229.994 331.828 231.244 333.077 232.752 333.077H254.771V338.463H232.752C228.272 338.463 224.653 334.801 224.653 330.32V316.446C224.653 311.965 228.272 308.303 232.752 308.303H254.771V313.688H232.752C231.244 313.688 229.994 314.938 229.994 316.446Z" fill="black"/>
<path d="M255.754 339.45H232.75C227.741 339.45 223.666 335.355 223.666 330.321V316.448C223.666 311.414 227.741 307.319 232.75 307.319H255.754V314.675H232.75C231.789 314.675 230.977 315.487 230.977 316.448V318.264H250.366V325.619H230.977V330.321C230.977 331.282 231.789 332.094 232.75 332.094H255.754V339.45ZM232.75 309.289C228.828 309.289 225.636 312.5 225.636 316.448V330.321C225.636 334.269 228.828 337.48 232.75 337.48H253.784V334.064H232.75C230.687 334.064 229.008 332.385 229.008 330.321V323.65H248.397V320.233H229.008V316.448C229.008 314.384 230.687 312.705 232.75 312.705H253.784V309.289H232.75Z" fill="black"/>
<path d="M143.744 10.8332H116.907C113.915 10.8332 111.49 8.40875 111.49 5.41661C111.49 2.42448 113.915 0 116.907 0H143.744C146.736 0 149.16 2.42448 149.16 5.41661C149.16 8.40875 146.736 10.8332 143.744 10.8332Z" fill="black"/>
<path d="M191.813 35.8988H68.8277C65.8356 35.8988 63.4111 33.4743 63.4111 30.4822C63.4111 27.49 65.8356 25.0656 68.8277 25.0656H191.813C194.805 25.0656 197.23 27.49 197.23 30.4822C197.23 33.4743 194.805 35.8988 191.813 35.8988Z" fill="black"/>
<path d="M209.68 60.9659H172.509C169.517 60.9659 167.093 58.5414 167.093 55.5493C167.093 52.5572 169.517 50.1327 172.509 50.1327H209.68C212.672 50.1327 215.097 52.5572 215.097 55.5493C215.097 58.5414 212.672 60.9659 209.68 60.9659Z" fill="black"/>
<path d="M88.1312 60.9659H50.9603C47.9682 60.9659 45.5437 58.5414 45.5437 55.5493C45.5437 52.5572 47.9682 50.1327 50.9603 50.1327H88.1312C91.1233 50.1327 93.5478 52.5572 93.5478 55.5493C93.5478 58.5414 91.1233 60.9659 88.1312 60.9659Z" fill="black"/>
<path d="M217.224 86.0212H145.956C142.964 86.0212 140.54 83.5967 140.54 80.6046C140.54 77.6125 142.964 75.188 145.956 75.188H217.224C220.216 75.188 222.64 77.6125 222.64 80.6046C222.64 83.5967 220.216 86.0212 217.224 86.0212Z" fill="black"/>
<path d="M114.686 86.0212H43.4166C40.4245 86.0212 38 83.5967 38 80.6046C38 77.6125 40.4245 75.188 43.4166 75.188H114.686C117.678 75.188 120.102 77.6125 120.102 80.6046C120.102 83.5967 117.678 86.0212 114.686 86.0212Z" fill="black"/>
<path d="M217.224 111.087H145.956C142.964 111.087 140.54 108.662 140.54 105.67C140.54 102.678 142.964 100.254 145.956 100.254H217.224C220.216 100.254 222.64 102.678 222.64 105.67C222.64 108.662 220.216 111.087 217.224 111.087Z" fill="black"/>
<path d="M114.686 111.087H43.4166C40.4245 111.087 38 108.662 38 105.67C38 102.678 40.4245 100.254 43.4166 100.254H114.686C117.678 100.254 120.102 102.678 120.102 105.67C120.102 108.662 117.678 111.087 114.686 111.087Z" fill="black"/>
<path d="M209.68 136.154H145.956C142.964 136.154 140.54 133.73 140.54 130.737C140.54 127.745 142.964 125.321 145.956 125.321H209.68C212.672 125.321 215.097 127.745 215.097 130.737C215.097 133.73 212.672 136.154 209.68 136.154Z" fill="black"/>
<path d="M114.686 136.154H50.962C47.9699 136.154 45.5454 133.73 45.5454 130.737C45.5454 127.745 47.9699 125.321 50.962 125.321H114.686C117.678 125.321 120.103 127.745 120.103 130.737C120.103 133.73 117.678 136.154 114.686 136.154Z" fill="black"/>
<path d="M191.813 161.209H68.8277C65.8356 161.209 63.4111 158.785 63.4111 155.793C63.4111 152.8 65.8356 150.376 68.8277 150.376H191.813C194.805 150.376 197.23 152.8 197.23 155.793C197.23 158.785 194.805 161.209 191.813 161.209Z" fill="black"/>
<path d="M143.744 186.275H116.907C113.915 186.275 111.49 183.85 111.49 180.858C111.49 177.866 113.915 175.442 116.907 175.442H143.744C146.736 175.442 149.16 177.866 149.16 180.858C149.16 183.85 146.736 186.275 143.744 186.275Z" fill="black"/>
</svg>
